 0
SECTION
 2
HEADER
 9
$ACADVER
 1
AC1009
 0
ENDSEC
 0
SECTION
 2
TABLES
 0
TABLE
 2
LTYPE
 70
1
 0
LTYPE
 2
CONTINUOUS
 70
64
 3
solid line
 72
65
 73
0
 40
0.0
 0
ENDTAB
 0
TABLE
 2
LAYER
 70
6
 0
LAYER
 2
0
 70
0
 62
7
 6
CONTINUOUS
 0
LAYER
 2
CAMERA
 70
64
 62
7
 6
CONTINUOUS
 0
LAYER
 2
TUBE
 70
64
 62
7
 6
CONTINUOUS
 0
LAYER
 2
TUBE.1
 70
64
 62
7
 6
CONTINUOUS
 0
ENDTAB
 0
ENDSEC
 0
SECTION
 2
BLOCKS
 0
ENDSEC
 0
SECTION
 2
ENTITIES
 0
POLYLINE
 8
TUBE
 66
1
 10
0.0
 20
0.0
 30
0.0
 70
64
 71
224
 72
112
 0
VERTEX
 8
TUBE
 10
3.1537
 20
0.1285
 30
0.3822
 70
192
 0
VERTEX
 8
TUBE
 10
4.3629
 20
0.1285
 30
0.3822
 70
192
 0
VERTEX
 8
TUBE
 10
4.3629
 20
0.1285
 30
0.3822
 70
192
 0
VERTEX
 8
TUBE
 10
4.3629
 20
0.1285
 30
1.2177
 70
192
 0
VERTEX
 8
TUBE
 10
4.3629
 20
0.1285
 30
1.2177
 70
192
 0
VERTEX
 8
TUBE
 10
3.1505
 20
0.1285
 30
1.0609
 70
192
 0
VERTEX
 8
TUBE
 10
3.1505
 20
0.1285
 30
1.0609
 70
192
 0
VERTEX
 8
TUBE
 10
3.1537
 20
0.1285
 30
0.3822
 70
192
 0
VERTEX
 8
TUBE
 10
3.0765
 20
0.3594
 30
0.3822
 70
192
 0
VERTEX
 8
TUBE
 10
4.2553
 20
0.4501
 30
0.3822
 70
192
 0
VERTEX
 8
TUBE
 10
4.2553
 20
0.4501
 30
0.3822
 70
192
 0
VERTEX
 8
TUBE
 10
4.2553
 20
0.4501
 30
1.2037
 70
192
 0
VERTEX
 8
TUBE
 10
4.2553
 20
0.4501
 30
1.2037
 70
192
 0
VERTEX
 8
TUBE
 10
3.0728
 20
0.3594
 30
1.0613
 70
192
 0
VERTEX
 8
TUBE
 10
3.0728
 20
0.3594
 30
1.0613
 70
192
 0
VERTEX
 8
TUBE
 10
3.0765
 20
0.3594
 30
0.3822
 70
192
 0
VERTEX
 8
TUBE
 10
2.8486
 20
0.5788
 30
0.3822
 70
192
 0
VERTEX
 8
TUBE
 10
3.938
 20
0.7555
 30
0.3822
 70
192
 0
VERTEX
 8
TUBE
 10
3.938
 20
0.7555
 30
0.3822
 70
192
 0
VERTEX
 8
TUBE
 10
3.9379
 20
0.7555
 30
1.1721
 70
192
 0
VERTEX
 8
TUBE
 10
3.9379
 20
0.7555
 30
1.1721
 70
192
 0
VERTEX
 8
TUBE
 10
2.8433
 20
0.5788
 30
1.0493
 70
192
 0
VERTEX
 8
TUBE
 10
2.8433
 20
0.5788
 30
1.0493
 70
192
 0
VERTEX
 8
TUBE
 10
2.8486
 20
0.5788
 30
0.3822
 70
192
 0
VERTEX
 8
TUBE
 10
2.4815
 20
0.7756
 30
0.3822
 70
192
 0
VERTEX
 8
TUBE
 10
3.4269
 20
1.0295
 30
0.3822
 70
192
 0
VERTEX
 8
TUBE
 10
3.4269
 20
1.0295
 30
0.3822
 70
192
 0
VERTEX
 8
TUBE
 10
3.426
 20
1.0295
 30
1.1393
 70
192
 0
VERTEX
 8
TUBE
 10
3.426
 20
1.0295
 30
1.1393
 70
192
 0
VERTEX
 8
TUBE
 10
2.473
 20
0.7755
 30
1.0273
 70
192
 0
VERTEX
 8
TUBE
 10
2.473
 20
0.7755
 30
1.0273
 70
192
 0
VERTEX
 8
TUBE
 10
2.4815
 20
0.7756
 30
0.3822
 70
192
 0
VERTEX
 8
TUBE
 10
1.9937
 20
0.9399
 30
0.3822
 70
192
 0
VERTEX
 8
TUBE
 10
2.7476
 20
1.2583
 30
0.3822
 70
192
 0
VERTEX
 8
TUBE
 10
2.7476
 20
1.2583
 30
0.3822
 70
192
 0
VERTEX
 8
TUBE
 10
2.7449
 20
1.2583
 30
1.1054
 70
192
 0
VERTEX
 8
TUBE
 10
2.7449
 20
1.2583
 30
1.1054
 70
192
 0
VERTEX
 8
TUBE
 10
1.9801
 20
0.9398
 30
0.9959
 70
192
 0
VERTEX
 8
TUBE
 10
1.9801
 20
0.9398
 30
0.9959
 70
192
 0
VERTEX
 8
TUBE
 10
1.9937
 20
0.9399
 30
0.3822
 70
192
 0
VERTEX
 8
TUBE
 10
1.4095
 20
1.0635
 30
0.3822
 70
192
 0
VERTEX
 8
TUBE
 10
1.9342
 20
1.4305
 30
0.3822
 70
192
 0
VERTEX
 8
TUBE
 10
1.9342
 20
1.4305
 30
0.3822
 70
192
 0
VERTEX
 8
TUBE
 10
1.9303
 20
1.4305
 30
1.0654
 70
192
 0
VERTEX
 8
TUBE
 10
1.9303
 20
1.4305
 30
1.0654
 70
192
 0
VERTEX
 8
TUBE
 10
1.3893
 20
1.0634
 30
0.9563
 70
192
 0
VERTEX
 8
TUBE
 10
1.3893
 20
1.0634
 30
0.9563
 70
192
 0
VERTEX
 8
TUBE
 10
1.4095
 20
1.0635
 30
0.3822
 70
192
 0
VERTEX
 8
TUBE
 10
0.7583
 20
1.1403
 30
0.3822
 70
192
 0
VERTEX
 8
TUBE
 10
1.0274
 20
1.5374
 30
0.3822
 70
192
 0
VERTEX
 8
TUBE
 10
1.0274
 20
1.5374
 30
0.3822
 70
192
 0
VERTEX
 8
TUBE
 10
1.0251
 20
1.5374
 30
1.0331
 70
192
 0
VERTEX
 8
TUBE
 10
1.0251
 20
1.5374
 30
1.0331
 70
192
 0
VERTEX
 8
TUBE
 10
0.7298
 20
1.1401
 30
0.9126
 70
192
 0
VERTEX
 8
TUBE
 10
0.7298
 20
1.1401
 30
0.9126
 70
192
 0
VERTEX
 8
TUBE
 10
0.7583
 20
1.1403
 30
0.3822
 70
192
 0
VERTEX
 8
TUBE
 10
0.0728
 20
1.1663
 30
0.3822
 70
192
 0
VERTEX
 8
TUBE
 10
0.0728
 20
1.5736
 30
0.3822
 70
192
 0
VERTEX
 8
TUBE
 10
0.0728
 20
1.5736
 30
0.3822
 70
192
 0
VERTEX
 8
TUBE
 10
0.0728
 20
1.5736
 30
1.024
 70
192
 0
VERTEX
 8
TUBE
 10
0.0728
 20
1.5736
 30
1.024
 70
192
 0
VERTEX
 8
TUBE
 10
0.0331
 20
1.1659
 30
0.8684
 70
192
 0
VERTEX
 8
TUBE
 10
0.0331
 20
1.1659
 30
0.8684
 70
192
 0
VERTEX
 8
TUBE
 10
0.0728
 20
1.1663
 30
0.3822
 70
192
 0
VERTEX
 8
TUBE
 10
-0.6128
 20
1.1403
 30
0.3822
 70
192
 0
VERTEX
 8
TUBE
 10
-0.8819
 20
1.5374
 30
0.3822
 70
192
 0
VERTEX
 8
TUBE
 10
-0.8819
 20
1.5374
 30
0.3822
 70
192
 0
VERTEX
 8
TUBE
 10
-0.8875
 20
1.5374
 30
1.0213
 70
192
 0
VERTEX
 8
TUBE
 10
-0.8875
 20
1.5374
 30
1.0213
 70
192
 0
VERTEX
 8
TUBE
 10
-0.6682
 20
1.1396
 30
0.8233
 70
192
 0
VERTEX
 8
TUBE
 10
-0.6682
 20
1.1396
 30
0.8233
 70
192
 0
VERTEX
 8
TUBE
 10
-0.6128
 20
1.1403
 30
0.3822
 70
192
 0
VERTEX
 8
TUBE
 10
-1.264
 20
1.0635
 30
0.3822
 70
192
 0
VERTEX
 8
TUBE
 10
-1.7886
 20
1.4305
 30
0.3822
 70
192
 0
VERTEX
 8
TUBE
 10
-1.7886
 20
1.4305
 30
0.3822
 70
192
 0
VERTEX
 8
TUBE
 10
-1.8142
 20
1.4303
 30
0.9953
 70
192
 0
VERTEX
 8
TUBE
 10
-1.8142
 20
1.4303
 30
0.9953
 70
192
 0
VERTEX
 8
TUBE
 10
-1.3407
 20
1.0619
 30
0.7779
 70
192
 0
VERTEX
 8
TUBE
 10
-1.3407
 20
1.0619
 30
0.7779
 70
192
 0
VERTEX
 8
TUBE
 10
-1.264
 20
1.0635
 30
0.3822
 70
192
 0
VERTEX
 8
TUBE
 10
-1.8482
 20
0.9399
 30
0.3822
 70
192
 0
VERTEX
 8
TUBE
 10
-2.6021
 20
1.2583
 30
0.3822
 70
192
 0
VERTEX
 8
TUBE
 10
-2.6021
 20
1.2583
 30
0.3822
 70
192
 0
VERTEX
 8
TUBE
 10
-2.6562
 20
1.2569
 30
0.9722
 70
192
 0
VERTEX
 8
TUBE
 10
-2.6562
 20
1.2569
 30
0.9722
 70
192
 0
VERTEX
 8
TUBE
 10
-1.9504
 20
0.9362
 30
0.7439
 70
192
 0
VERTEX
 8
TUBE
 10
-1.9504
 20
0.9362
 30
0.7439
 70
192
 0
VERTEX
 8
TUBE
 10
-1.8482
 20
0.9399
 30
0.3822
 70
192
 0
VERTEX
 8
TUBE
 10
-2.336
 20
0.7756
 30
0.3822
 70
192
 0
VERTEX
 8
TUBE
 10
-3.2814
 20
1.0295
 30
0.3822
 70
192
 0
VERTEX
 8
TUBE
 10
-3.2814
 20
1.0295
 30
0.3822
 70
192
 0
VERTEX
 8
TUBE
 10
-3.3596
 20
1.0233
 30
1.0435
 70
192
 0
VERTEX
 8
TUBE
 10
-3.3596
 20
1.0233
 30
1.0435
 70
192
 0
VERTEX
 8
TUBE
 10
-2.4654
 20
0.7677
 30
0.741
 70
192
 0
VERTEX
 8
TUBE
 10
-2.4654
 20
0.7677
 30
0.741
 70
192
 0
VERTEX
 8
TUBE
 10
-2.336
 20
0.7756
 30
0.3822
 70
192
 0
VERTEX
 8
TUBE
 10
-2.703
 20
0.5788
 30
0.3822
 70
192
 0
VERTEX
 8
TUBE
 10
-3.7925
 20
0.7555
 30
0.3822
 70
192
 0
VERTEX
 8
TUBE
 10
-3.7925
 20
0.7555
 30
0.3822
 70
192
 0
VERTEX
 8
TUBE
 10
-3.8894
 20
0.7375
 30
1.2632
 70
192
 0
VERTEX
 8
TUBE
 10
-3.8894
 20
0.7375
 30
1.2632
 70
192
 0
VERTEX
 8
TUBE
 10
-2.8607
 20
0.5638
 30
0.7773
 70
192
 0
VERTEX
 8
TUBE
 10
-2.8607
 20
0.5638
 30
0.7773
 70
192
 0
VERTEX
 8
TUBE
 10
-2.703
 20
0.5788
 30
0.3822
 70
192
 0
VERTEX
 8
TUBE
 10
-2.9309
 20
0.3594
 30
0.3822
 70
192
 0
VERTEX
 8
TUBE
 10
-4.1098
 20
0.4501
 30
0.3822
 70
192
 0
VERTEX
 8
TUBE
 10
-4.1098
 20
0.4501
 30
0.3822
 70
192
 0
VERTEX
 8
TUBE
 10
-4.2405
 20
0.4105
 30
1.5457
 70
192
 0
VERTEX
 8
TUBE
 10
-4.2405
 20
0.4105
 30
1.5457
 70
192
 0
VERTEX
 8
TUBE
 10
-3.1199
 20
0.334
 30
0.8327
 70
192
 0
VERTEX
 8
TUBE
 10
-3.1199
 20
0.334
 30
0.8327
 70
192
 0
VERTEX
 8
TUBE
 10
-2.9309
 20
0.3594
 30
0.3822
 70
192
 0
VERTEX
 8
TUBE
 10
-3.0081
 20
0.1285
 30
0.3822
 70
192
 0
VERTEX
 8
TUBE
 10
-4.2173
 20
0.1285
 30
0.3822
 70
192
 0
VERTEX
 8
TUBE
 10
-4.2173
 20
0.1285
 30
0.3822
 70
192
 0
VERTEX
 8
TUBE
 10
-4.4192
 20
0.0596
 30
1.7129
 70
192
 0
VERTEX
 8
TUBE
 10
-4.4192
 20
0.0596
 30
1.7129
 70
192
 0
VERTEX
 8
TUBE
 10
-3.2322
 20
0.091
 30
0.869
 70
192
 0
VERTEX
 8
TUBE
 10
-3.2322
 20
0.091
 30
0.869
 70
192
 0
VERTEX
 8
TUBE
 10
-3.0081
 20
0.1285
 30
0.3822
 70
192
 0
VERTEX
 8
TUBE
 10
-2.9309
 20
-0.1024
 30
0.3822
 70
192
 0
VERTEX
 8
TUBE
 10
-4.1098
 20
-0.1931
 30
0.3822
 70
192
 0
VERTEX
 8
TUBE
 10
-4.1098
 20
-0.1931
 30
0.3822
 70
192
 0
VERTEX
 8
TUBE
 10
-4.4113
 20
-0.291
 30
1.6601
 70
192
 0
VERTEX
 8
TUBE
 10
-4.4113
 20
-0.291
 30
1.6601
 70
192
 0
VERTEX
 8
TUBE
 10
-3.1873
 20
-0.1508
 30
0.8601
 70
192
 0
VERTEX
 8
TUBE
 10
-3.1873
 20
-0.1508
 30
0.8601
 70
192
 0
VERTEX
 8
TUBE
 10
-2.9309
 20
-0.1024
 30
0.3822
 70
192
 0
VERTEX
 8
TUBE
 10
-2.703
 20
-0.3218
 30
0.3822
 70
192
 0
VERTEX
 8
TUBE
 10
-3.7925
 20
-0.4985
 30
0.3822
 70
192
 0
VERTEX
 8
TUBE
 10
-3.7925
 20
-0.4985
 30
0.3822
 70
192
 0
VERTEX
 8
TUBE
 10
-4.1753
 20
-0.6141
 30
1.4485
 70
192
 0
VERTEX
 8
TUBE
 10
-4.1753
 20
-0.6141
 30
1.4485
 70
192
 0
VERTEX
 8
TUBE
 10
-2.9764
 20
-0.3763
 30
0.8099
 70
192
 0
VERTEX
 8
TUBE
 10
-2.9764
 20
-0.3763
 30
0.8099
 70
192
 0
VERTEX
 8
TUBE
 10
-2.703
 20
-0.3218
 30
0.3822
 70
192
 0
VERTEX
 8
TUBE
 10
-2.336
 20
-0.5185
 30
0.3822
 70
192
 0
VERTEX
 8
TUBE
 10
-3.2814
 20
-0.7725
 30
0.3822
 70
192
 0
VERTEX
 8
TUBE
 10
-3.2814
 20
-0.7725
 30
0.3822
 70
192
 0
VERTEX
 8
TUBE
 10
-3.6768
 20
-0.8869
 30
1.2161
 70
192
 0
VERTEX
 8
TUBE
 10
-3.6768
 20
-0.8869
 30
1.2161
 70
192
 0
VERTEX
 8
TUBE
 10
-2.5997
 20
-0.5722
 30
0.7414
 70
192
 0
VERTEX
 8
TUBE
 10
-2.5997
 20
-0.5722
 30
0.7414
 70
192
 0
VERTEX
 8
TUBE
 10
-2.336
 20
-0.5185
 30
0.3822
 70
192
 0
VERTEX
 8
TUBE
 10
-1.8482
 20
-0.6829
 30
0.3822
 70
192
 0
VERTEX
 8
TUBE
 10
-2.6021
 20
-1.0013
 30
0.3822
 70
192
 0
VERTEX
 8
TUBE
 10
-2.6021
 20
-1.0013
 30
0.3822
 70
192
 0
VERTEX
 8
TUBE
 10
-2.9303
 20
-1.0963
 30
1.0313
 70
192
 0
VERTEX
 8
TUBE
 10
-2.9303
 20
-1.0963
 30
1.0313
 70
192
 0
VERTEX
 8
TUBE
 10
-2.0749
 20
-0.729
 30
0.674
 70
192
 0
VERTEX
 8
TUBE
 10
-2.0749
 20
-0.729
 30
0.674
 70
192
 0
VERTEX
 8
TUBE
 10
-1.8482
 20
-0.6829
 30
0.3822
 70
192
 0
VERTEX
 8
TUBE
 10
-1.264
 20
-0.8065
 30
0.3822
 70
192
 0
VERTEX
 8
TUBE
 10
-1.7886
 20
-1.1735
 30
0.3822
 70
192
 0
VERTEX
 8
TUBE
 10
-1.7886
 20
-1.1735
 30
0.3822
 70
192
 0
VERTEX
 8
TUBE
 10
-2.0064
 20
-1.2393
 30
0.8705
 70
192
 0
VERTEX
 8
TUBE
 10
-2.0064
 20
-1.2393
 30
0.8705
 70
192
 0
VERTEX
 8
TUBE
 10
-1.4373
 20
-0.8411
 30
0.6173
 70
192
 0
VERTEX
 8
TUBE
 10
-1.4373
 20
-0.8411
 30
0.6173
 70
192
 0
VERTEX
 8
TUBE
 10
-1.264
 20
-0.8065
 30
0.3822
 70
192
 0
VERTEX
 8
TUBE
 10
-0.6128
 20
-0.8833
 30
0.3822
 70
192
 0
VERTEX
 8
TUBE
 10
-0.8819
 20
-1.2804
 30
0.3822
 70
192
 0
VERTEX
 8
TUBE
 10
-0.8819
 20
-1.2804
 30
0.3822
 70
192
 0
VERTEX
 8
TUBE
 10
-0.9974
 20
-1.3179
 30
0.7186
 70
192
 0
VERTEX
 8
TUBE
 10
-0.9974
 20
-1.3179
 30
0.7186
 70
192
 0
VERTEX
 8
TUBE
 10
-0.7321
 20
-0.9058
 30
0.582
 70
192
 0
VERTEX
 8
TUBE
 10
-0.7321
 20
-0.9058
 30
0.582
 70
192
 0
VERTEX
 8
TUBE
 10
-0.6128
 20
-0.8833
 30
0.3822
 70
192
 0
VERTEX
 8
TUBE
 10
0.0728
 20
-0.9093
 30
0.3822
 70
192
 0
VERTEX
 8
TUBE
 10
0.0728
 20
-1.3166
 30
0.3822
 70
192
 0
VERTEX
 8
TUBE
 10
0.0728
 20
-1.3166
 30
0.3822
 70
192
 0
VERTEX
 8
TUBE
 10
0.0223
 20
-1.3338
 30
0.6304
 70
192
 0
VERTEX
 8
TUBE
 10
0.0223
 20
-1.3338
 30
0.6304
 70
192
 0
VERTEX
 8
TUBE
 10
-0.0031
 20
-0.922
 30
0.5858
 70
192
 0
VERTEX
 8
TUBE
 10
-0.0031
 20
-0.922
 30
0.5858
 70
192
 0
VERTEX
 8
TUBE
 10
0.0728
 20
-0.9093
 30
0.3822
 70
192
 0
VERTEX
 8
TUBE
 10
0.7583
 20
-0.8833
 30
0.3822
 70
192
 0
VERTEX
 8
TUBE
 10
1.0274
 20
-1.2804
 30
0.3822
 70
192
 0
VERTEX
 8
TUBE
 10
1.0274
 20
-1.2804
 30
0.3822
 70
192
 0
VERTEX
 8
TUBE
 10
1.0072
 20
-1.2865
 30
0.6687
 70
192
 0
VERTEX
 8
TUBE
 10
1.0072
 20
-1.2865
 30
0.6687
 70
192
 0
VERTEX
 8
TUBE
 10
0.7122
 20
-0.8895
 30
0.6402
 70
192
 0
VERTEX
 8
TUBE
 10
0.7122
 20
-0.8895
 30
0.6402
 70
192
 0
VERTEX
 8
TUBE
 10
0.7583
 20
-0.8833
 30
0.3822
 70
192
 0
VERTEX
 8
TUBE
 10
1.4095
 20
-0.8065
 30
0.3822
 70
192
 0
VERTEX
 8
TUBE
 10
1.9342
 20
-1.1735
 30
0.3822
 70
192
 0
VERTEX
 8
TUBE
 10
1.9342
 20
-1.1735
 30
0.3822
 70
192
 0
VERTEX
 8
TUBE
 10
1.9256
 20
-1.1751
 30
0.8148
 70
192
 0
VERTEX
 8
TUBE
 10
1.9256
 20
-1.1751
 30
0.8148
 70
192
 0
VERTEX
 8
TUBE
 10
1.382
 20
-0.8091
 30
0.7357
 70
192
 0
VERTEX
 8
TUBE
 10
1.382
 20
-0.8091
 30
0.7357
 70
192
 0
VERTEX
 8
TUBE
 10
1.4095
 20
-0.8065
 30
0.3822
 70
192
 0
VERTEX
 8
TUBE
 10
1.9937
 20
-0.6829
 30
0.3822
 70
192
 0
VERTEX
 8
TUBE
 10
2.7476
 20
-1.0013
 30
0.3822
 70
192
 0
VERTEX
 8
TUBE
 10
2.7476
 20
-1.0013
 30
0.3822
 70
192
 0
VERTEX
 8
TUBE
 10
2.7441
 20
-1.0016
 30
0.981
 70
192
 0
VERTEX
 8
TUBE
 10
2.7441
 20
-1.0016
 30
0.981
 70
192
 0
VERTEX
 8
TUBE
 10
1.9775
 20
-0.6838
 30
0.8443
 70
192
 0
VERTEX
 8
TUBE
 10
1.9775
 20
-0.6838
 30
0.8443
 70
192
 0
VERTEX
 8
TUBE
 10
1.9937
 20
-0.6829
 30
0.3822
 70
192
 0
VERTEX
 8
TUBE
 10
2.4815
 20
-0.5185
 30
0.3822
 70
192
 0
VERTEX
 8
TUBE
 10
3.4269
 20
-0.7725
 30
0.3822
 70
192
 0
VERTEX
 8
TUBE
 10
3.4269
 20
-0.7725
 30
0.3822
 70
192
 0
VERTEX
 8
TUBE
 10
3.4259
 20
-0.7725
 30
1.0991
 70
192
 0
VERTEX
 8
TUBE
 10
3.4259
 20
-0.7725
 30
1.0991
 70
192
 0
VERTEX
 8
TUBE
 10
2.4722
 20
-0.5189
 30
0.9381
 70
192
 0
VERTEX
 8
TUBE
 10
2.4722
 20
-0.5189
 30
0.9381
 70
192
 0
VERTEX
 8
TUBE
 10
2.4815
 20
-0.5185
 30
0.3822
 70
192
 0
VERTEX
 8
TUBE
 10
2.8486
 20
-0.3218
 30
0.3822
 70
192
 0
VERTEX
 8
TUBE
 10
3.938
 20
-0.4985
 30
0.3822
 70
192
 0
VERTEX
 8
TUBE
 10
3.938
 20
-0.4985
 30
0.3822
 70
192
 0
VERTEX
 8
TUBE
 10
3.9379
 20
-0.4985
 30
1.1655
 70
192
 0
VERTEX
 8
TUBE
 10
3.9379
 20
-0.4985
 30
1.1655
 70
192
 0
VERTEX
 8
TUBE
 10
2.843
 20
-0.3219
 30
1.0045
 70
192
 0
VERTEX
 8
TUBE
 10
2.843
 20
-0.3219
 30
1.0045
 70
192
 0
VERTEX
 8
TUBE
 10
2.8486
 20
-0.3218
 30
0.3822
 70
192
 0
VERTEX
 8
TUBE
 10
3.0765
 20
-0.1024
 30
0.3822
 70
192
 0
VERTEX
 8
TUBE
 10
4.2553
 20
-0.1931
 30
0.3822
 70
192
 0
VERTEX
 8
TUBE
 10
4.2553
 20
-0.1931
 30
0.3822
 70
192
 0
VERTEX
 8
TUBE
 10
4.2553
 20
-0.1931
 30
1.2034
 70
192
 0
VERTEX
 8
TUBE
 10
4.2553
 20
-0.1931
 30
1.2034
 70
192
 0
VERTEX
 8
TUBE
 10
3.0727
 20
-0.1025
 30
1.0436
 70
192
 0
VERTEX
 8
TUBE
 10
3.0727
 20
-0.1025
 30
1.0436
 70
192
 0
VERTEX
 8
TUBE
 10
3.0765
 20
-0.1024
 30
0.3822
 70
192
 0
VERTEX
 8
TUBE
 10
0
 20
0
 30
0
 70
128
 71
1
 72
2
 73
10
 74
9
 0
VERTEX
 8
TUBE
 10
0
 20
0
 30
0
 70
128
 71
3
 72
4
 73
12
 74
11
 0
VERTEX
 8
TUBE
 10
0
 20
0
 30
0
 70
128
 71
5
 72
6
 73
14
 74
13
 0
VERTEX
 8
TUBE
 10
0
 20
0
 30
0
 70
128
 71
7
 72
8
 73
16
 74
15
 0
VERTEX
 8
TUBE
 10
0
 20
0
 30
0
 70
128
 71
9
 72
10
 73
18
 74
17
 0
VERTEX
 8
TUBE
 10
0
 20
0
 30
0
 70
128
 71
11
 72
12
 73
20
 74
19
 0
VERTEX
 8
TUBE
 10
0
 20
0
 30
0
 70
128
 71
13
 72
14
 73
22
 74
21
 0
VERTEX
 8
TUBE
 10
0
 20
0
 30
0
 70
128
 71
15
 72
16
 73
24
 74
23
 0
VERTEX
 8
TUBE
 10
0
 20
0
 30
0
 70
128
 71
17
 72
18
 73
26
 74
25
 0
VERTEX
 8
TUBE
 10
0
 20
0
 30
0
 70
128
 71
19
 72
20
 73
28
 74
27
 0
VERTEX
 8
TUBE
 10
0
 20
0
 30
0
 70
128
 71
21
 72
22
 73
30
 74
29
 0
VERTEX
 8
TUBE
 10
0
 20
0
 30
0
 70
128
 71
23
 72
24
 73
32
 74
31
 0
VERTEX
 8
TUBE
 10
0
 20
0
 30
0
 70
128
 71
25
 72
26
 73
34
 74
33
 0
VERTEX
 8
TUBE
 10
0
 20
0
 30
0
 70
128
 71
27
 72
28
 73
36
 74
35
 0
VERTEX
 8
TUBE
 10
0
 20
0
 30
0
 70
128
 71
29
 72
30
 73
38
 74
37
 0
VERTEX
 8
TUBE
 10
0
 20
0
 30
0
 70
128
 71
31
 72
32
 73
40
 74
39
 0
VERTEX
 8
TUBE
 10
0
 20
0
 30
0
 70
128
 71
33
 72
34
 73
42
 74
41
 0
VERTEX
 8
TUBE
 10
0
 20
0
 30
0
 70
128
 71
35
 72
36
 73
44
 74
43
 0
VERTEX
 8
TUBE
 10
0
 20
0
 30
0
 70
128
 71
37
 72
38
 73
46
 74
45
 0
VERTEX
 8
TUBE
 10
0
 20
0
 30
0
 70
128
 71
39
 72
40
 73
48
 74
47
 0
VERTEX
 8
TUBE
 10
0
 20
0
 30
0
 70
128
 71
41
 72
42
 73
50
 74
49
 0
VERTEX
 8
TUBE
 10
0
 20
0
 30
0
 70
128
 71
43
 72
44
 73
52
 74
51
 0
VERTEX
 8
TUBE
 10
0
 20
0
 30
0
 70
128
 71
45
 72
46
 73
54
 74
53
 0
VERTEX
 8
TUBE
 10
0
 20
0
 30
0
 70
128
 71
47
 72
48
 73
56
 74
55
 0
VERTEX
 8
TUBE
 10
0
 20
0
 30
0
 70
128
 71
49
 72
50
 73
58
 74
57
 0
VERTEX
 8
TUBE
 10
0
 20
0
 30
0
 70
128
 71
51
 72
52
 73
60
 74
59
 0
VERTEX
 8
TUBE
 10
0
 20
0
 30
0
 70
128
 71
53
 72
54
 73
62
 74
61
 0
VERTEX
 8
TUBE
 10
0
 20
0
 30
0
 70
128
 71
55
 72
56
 73
64
 74
63
 0
VERTEX
 8
TUBE
 10
0
 20
0
 30
0
 70
128
 71
57
 72
58
 73
66
 74
65
 0
VERTEX
 8
TUBE
 10
0
 20
0
 30
0
 70
128
 71
59
 72
60
 73
68
 74
67
 0
VERTEX
 8
TUBE
 10
0
 20
0
 30
0
 70
128
 71
61
 72
62
 73
70
 74
69
 0
VERTEX
 8
TUBE
 10
0
 20
0
 30
0
 70
128
 71
63
 72
64
 73
72
 74
71
 0
VERTEX
 8
TUBE
 10
0
 20
0
 30
0
 70
128
 71
65
 72
66
 73
74
 74
73
 0
VERTEX
 8
TUBE
 10
0
 20
0
 30
0
 70
128
 71
67
 72
68
 73
76
 74
75
 0
VERTEX
 8
TUBE
 10
0
 20
0
 30
0
 70
128
 71
69
 72
70
 73
78
 74
77
 0
VERTEX
 8
TUBE
 10
0
 20
0
 30
0
 70
128
 71
71
 72
72
 73
80
 74
79
 0
VERTEX
 8
TUBE
 10
0
 20
0
 30
0
 70
128
 71
73
 72
74
 73
82
 74
81
 0
VERTEX
 8
TUBE
 10
0
 20
0
 30
0
 70
128
 71
75
 72
76
 73
84
 74
83
 0
VERTEX
 8
TUBE
 10
0
 20
0
 30
0
 70
128
 71
77
 72
78
 73
86
 74
85
 0
VERTEX
 8
TUBE
 10
0
 20
0
 30
0
 70
128
 71
79
 72
80
 73
88
 74
87
 0
VERTEX
 8
TUBE
 10
0
 20
0
 30
0
 70
128
 71
81
 72
82
 73
90
 74
89
 0
VERTEX
 8
TUBE
 10
0
 20
0
 30
0
 70
128
 71
83
 72
84
 73
92
 74
91
 0
VERTEX
 8
TUBE
 10
0
 20
0
 30
0
 70
128
 71
85
 72
86
 73
94
 74
93
 0
VERTEX
 8
TUBE
 10
0
 20
0
 30
0
 70
128
 71
87
 72
88
 73
96
 74
95
 0
VERTEX
 8
TUBE
 10
0
 20
0
 30
0
 70
128
 71
89
 72
90
 73
98
 74
97
 0
VERTEX
 8
TUBE
 10
0
 20
0
 30
0
 70
128
 71
91
 72
92
 73
100
 74
99
 0
VERTEX
 8
TUBE
 10
0
 20
0
 30
0
 70
128
 71
93
 72
94
 73
102
 74
101
 0
VERTEX
 8
TUBE
 10
0
 20
0
 30
0
 70
128
 71
95
 72
96
 73
104
 74
103
 0
VERTEX
 8
TUBE
 10
0
 20
0
 30
0
 70
128
 71
97
 72
98
 73
106
 74
105
 0
VERTEX
 8
TUBE
 10
0
 20
0
 30
0
 70
128
 71
99
 72
100
 73
108
 74
107
 0
VERTEX
 8
TUBE
 10
0
 20
0
 30
0
 70
128
 71
101
 72
102
 73
110
 74
109
 0
VERTEX
 8
TUBE
 10
0
 20
0
 30
0
 70
128
 71
103
 72
104
 73
112
 74
111
 0
VERTEX
 8
TUBE
 10
0
 20
0
 30
0
 70
128
 71
105
 72
106
 73
114
 74
113
 0
VERTEX
 8
TUBE
 10
0
 20
0
 30
0
 70
128
 71
107
 72
108
 73
116
 74
115
 0
VERTEX
 8
TUBE
 10
0
 20
0
 30
0
 70
128
 71
109
 72
110
 73
118
 74
117
 0
VERTEX
 8
TUBE
 10
0
 20
0
 30
0
 70
128
 71
111
 72
112
 73
120
 74
119
 0
VERTEX
 8
TUBE
 10
0
 20
0
 30
0
 70
128
 71
113
 72
114
 73
122
 74
121
 0
VERTEX
 8
TUBE
 10
0
 20
0
 30
0
 70
128
 71
115
 72
116
 73
124
 74
123
 0
VERTEX
 8
TUBE
 10
0
 20
0
 30
0
 70
128
 71
117
 72
118
 73
126
 74
125
 0
VERTEX
 8
TUBE
 10
0
 20
0
 30
0
 70
128
 71
119
 72
120
 73
128
 74
127
 0
VERTEX
 8
TUBE
 10
0
 20
0
 30
0
 70
128
 71
121
 72
122
 73
130
 74
129
 0
VERTEX
 8
TUBE
 10
0
 20
0
 30
0
 70
128
 71
123
 72
124
 73
132
 74
131
 0
VERTEX
 8
TUBE
 10
0
 20
0
 30
0
 70
128
 71
125
 72
126
 73
134
 74
133
 0
VERTEX
 8
TUBE
 10
0
 20
0
 30
0
 70
128
 71
127
 72
128
 73
136
 74
135
 0
VERTEX
 8
TUBE
 10
0
 20
0
 30
0
 70
128
 71
129
 72
130
 73
138
 74
137
 0
VERTEX
 8
TUBE
 10
0
 20
0
 30
0
 70
128
 71
131
 72
132
 73
140
 74
139
 0
VERTEX
 8
TUBE
 10
0
 20
0
 30
0
 70
128
 71
133
 72
134
 73
142
 74
141
 0
VERTEX
 8
TUBE
 10
0
 20
0
 30
0
 70
128
 71
135
 72
136
 73
144
 74
143
 0
VERTEX
 8
TUBE
 10
0
 20
0
 30
0
 70
128
 71
137
 72
138
 73
146
 74
145
 0
VERTEX
 8
TUBE
 10
0
 20
0
 30
0
 70
128
 71
139
 72
140
 73
148
 74
147
 0
VERTEX
 8
TUBE
 10
0
 20
0
 30
0
 70
128
 71
141
 72
142
 73
150
 74
149
 0
VERTEX
 8
TUBE
 10
0
 20
0
 30
0
 70
128
 71
143
 72
144
 73
152
 74
151
 0
VERTEX
 8
TUBE
 10
0
 20
0
 30
0
 70
128
 71
145
 72
146
 73
154
 74
153
 0
VERTEX
 8
TUBE
 10
0
 20
0
 30
0
 70
128
 71
147
 72
148
 73
156
 74
155
 0
VERTEX
 8
TUBE
 10
0
 20
0
 30
0
 70
128
 71
149
 72
150
 73
158
 74
157
 0
VERTEX
 8
TUBE
 10
0
 20
0
 30
0
 70
128
 71
151
 72
152
 73
160
 74
159
 0
VERTEX
 8
TUBE
 10
0
 20
0
 30
0
 70
128
 71
153
 72
154
 73
162
 74
161
 0
VERTEX
 8
TUBE
 10
0
 20
0
 30
0
 70
128
 71
155
 72
156
 73
164
 74
163
 0
VERTEX
 8
TUBE
 10
0
 20
0
 30
0
 70
128
 71
157
 72
158
 73
166
 74
165
 0
VERTEX
 8
TUBE
 10
0
 20
0
 30
0
 70
128
 71
159
 72
160
 73
168
 74
167
 0
VERTEX
 8
TUBE
 10
0
 20
0
 30
0
 70
128
 71
161
 72
162
 73
170
 74
169
 0
VERTEX
 8
TUBE
 10
0
 20
0
 30
0
 70
128
 71
163
 72
164
 73
172
 74
171
 0
VERTEX
 8
TUBE
 10
0
 20
0
 30
0
 70
128
 71
165
 72
166
 73
174
 74
173
 0
VERTEX
 8
TUBE
 10
0
 20
0
 30
0
 70
128
 71
167
 72
168
 73
176
 74
175
 0
VERTEX
 8
TUBE
 10
0
 20
0
 30
0
 70
128
 71
169
 72
170
 73
178
 74
177
 0
VERTEX
 8
TUBE
 10
0
 20
0
 30
0
 70
128
 71
171
 72
172
 73
180
 74
179
 0
VERTEX
 8
TUBE
 10
0
 20
0
 30
0
 70
128
 71
173
 72
174
 73
182
 74
181
 0
VERTEX
 8
TUBE
 10
0
 20
0
 30
0
 70
128
 71
175
 72
176
 73
184
 74
183
 0
VERTEX
 8
TUBE
 10
0
 20
0
 30
0
 70
128
 71
177
 72
178
 73
186
 74
185
 0
VERTEX
 8
TUBE
 10
0
 20
0
 30
0
 70
128
 71
179
 72
180
 73
188
 74
187
 0
VERTEX
 8
TUBE
 10
0
 20
0
 30
0
 70
128
 71
181
 72
182
 73
190
 74
189
 0
VERTEX
 8
TUBE
 10
0
 20
0
 30
0
 70
128
 71
183
 72
184
 73
192
 74
191
 0
VERTEX
 8
TUBE
 10
0
 20
0
 30
0
 70
128
 71
185
 72
186
 73
194
 74
193
 0
VERTEX
 8
TUBE
 10
0
 20
0
 30
0
 70
128
 71
187
 72
188
 73
196
 74
195
 0
VERTEX
 8
TUBE
 10
0
 20
0
 30
0
 70
128
 71
189
 72
190
 73
198
 74
197
 0
VERTEX
 8
TUBE
 10
0
 20
0
 30
0
 70
128
 71
191
 72
192
 73
200
 74
199
 0
VERTEX
 8
TUBE
 10
0
 20
0
 30
0
 70
128
 71
193
 72
194
 73
202
 74
201
 0
VERTEX
 8
TUBE
 10
0
 20
0
 30
0
 70
128
 71
195
 72
196
 73
204
 74
203
 0
VERTEX
 8
TUBE
 10
0
 20
0
 30
0
 70
128
 71
197
 72
198
 73
206
 74
205
 0
VERTEX
 8
TUBE
 10
0
 20
0
 30
0
 70
128
 71
199
 72
200
 73
208
 74
207
 0
VERTEX
 8
TUBE
 10
0
 20
0
 30
0
 70
128
 71
201
 72
202
 73
210
 74
209
 0
VERTEX
 8
TUBE
 10
0
 20
0
 30
0
 70
128
 71
203
 72
204
 73
212
 74
211
 0
VERTEX
 8
TUBE
 10
0
 20
0
 30
0
 70
128
 71
205
 72
206
 73
214
 74
213
 0
VERTEX
 8
TUBE
 10
0
 20
0
 30
0
 70
128
 71
207
 72
208
 73
216
 74
215
 0
VERTEX
 8
TUBE
 10
0
 20
0
 30
0
 70
128
 71
209
 72
210
 73
218
 74
217
 0
VERTEX
 8
TUBE
 10
0
 20
0
 30
0
 70
128
 71
211
 72
212
 73
220
 74
219
 0
VERTEX
 8
TUBE
 10
0
 20
0
 30
0
 70
128
 71
213
 72
214
 73
222
 74
221
 0
VERTEX
 8
TUBE
 10
0
 20
0
 30
0
 70
128
 71
215
 72
216
 73
224
 74
223
 0
VERTEX
 8
TUBE
 10
0
 20
0
 30
0
 70
128
 71
217
 72
218
 73
2
 74
1
 0
VERTEX
 8
TUBE
 10
0
 20
0
 30
0
 70
128
 71
219
 72
220
 73
4
 74
3
 0
VERTEX
 8
TUBE
 10
0
 20
0
 30
0
 70
128
 71
221
 72
222
 73
6
 74
5
 0
VERTEX
 8
TUBE
 10
0
 20
0
 30
0
 70
128
 71
223
 72
224
 73
8
 74
7
 0
SEQEND
 0
POLYLINE
 8
TUBE.1
 66
1
 10
0.0
 20
0.0
 30
0.0
 70
64
 71
224
 72
112
 0
VERTEX
 8
TUBE.1
 10
3.1537
 20
0.1285
 30
0.3822
 70
192
 0
VERTEX
 8
TUBE.1
 10
4.3629
 20
0.1285
 30
0.3822
 70
192
 0
VERTEX
 8
TUBE.1
 10
4.3629
 20
0.1285
 30
0.3822
 70
192
 0
VERTEX
 8
TUBE.1
 10
4.3629
 20
0.1285
 30
1.2177
 70
192
 0
VERTEX
 8
TUBE.1
 10
4.3629
 20
0.1285
 30
1.2177
 70
192
 0
VERTEX
 8
TUBE.1
 10
3.1505
 20
0.1285
 30
1.0609
 70
192
 0
VERTEX
 8
TUBE.1
 10
3.1505
 20
0.1285
 30
1.0609
 70
192
 0
VERTEX
 8
TUBE.1
 10
3.1537
 20
0.1285
 30
0.3822
 70
192
 0
VERTEX
 8
TUBE.1
 10
3.0765
 20
0.3594
 30
0.3822
 70
192
 0
VERTEX
 8
TUBE.1
 10
4.2553
 20
0.4501
 30
0.3822
 70
192
 0
VERTEX
 8
TUBE.1
 10
4.2553
 20
0.4501
 30
0.3822
 70
192
 0
VERTEX
 8
TUBE.1
 10
4.2553
 20
0.4501
 30
1.2037
 70
192
 0
VERTEX
 8
TUBE.1
 10
4.2553
 20
0.4501
 30
1.2037
 70
192
 0
VERTEX
 8
TUBE.1
 10
3.0728
 20
0.3594
 30
1.0613
 70
192
 0
VERTEX
 8
TUBE.1
 10
3.0728
 20
0.3594
 30
1.0613
 70
192
 0
VERTEX
 8
TUBE.1
 10
3.0765
 20
0.3594
 30
0.3822
 70
192
 0
VERTEX
 8
TUBE.1
 10
2.8486
 20
0.5788
 30
0.3822
 70
192
 0
VERTEX
 8
TUBE.1
 10
3.938
 20
0.7555
 30
0.3822
 70
192
 0
VERTEX
 8
TUBE.1
 10
3.938
 20
0.7555
 30
0.3822
 70
192
 0
VERTEX
 8
TUBE.1
 10
3.9379
 20
0.7555
 30
1.1721
 70
192
 0
VERTEX
 8
TUBE.1
 10
3.9379
 20
0.7555
 30
1.1721
 70
192
 0
VERTEX
 8
TUBE.1
 10
2.8433
 20
0.5788
 30
1.0493
 70
192
 0
VERTEX
 8
TUBE.1
 10
2.8433
 20
0.5788
 30
1.0493
 70
192
 0
VERTEX
 8
TUBE.1
 10
2.8486
 20
0.5788
 30
0.3822
 70
192
 0
VERTEX
 8
TUBE.1
 10
2.4815
 20
0.7756
 30
0.3822
 70
192
 0
VERTEX
 8
TUBE.1
 10
3.4269
 20
1.0295
 30
0.3822
 70
192
 0
VERTEX
 8
TUBE.1
 10
3.4269
 20
1.0295
 30
0.3822
 70
192
 0
VERTEX
 8
TUBE.1
 10
3.426
 20
1.0295
 30
1.1393
 70
192
 0
VERTEX
 8
TUBE.1
 10
3.426
 20
1.0295
 30
1.1393
 70
192
 0
VERTEX
 8
TUBE.1
 10
2.473
 20
0.7755
 30
1.0273
 70
192
 0
VERTEX
 8
TUBE.1
 10
2.473
 20
0.7755
 30
1.0273
 70
192
 0
VERTEX
 8
TUBE.1
 10
2.4815
 20
0.7756
 30
0.3822
 70
192
 0
VERTEX
 8
TUBE.1
 10
1.9937
 20
0.9399
 30
0.3822
 70
192
 0
VERTEX
 8
TUBE.1
 10
2.7476
 20
1.2583
 30
0.3822
 70
192
 0
VERTEX
 8
TUBE.1
 10
2.7476
 20
1.2583
 30
0.3822
 70
192
 0
VERTEX
 8
TUBE.1
 10
2.7449
 20
1.2583
 30
1.1054
 70
192
 0
VERTEX
 8
TUBE.1
 10
2.7449
 20
1.2583
 30
1.1054
 70
192
 0
VERTEX
 8
TUBE.1
 10
1.9801
 20
0.9398
 30
0.9959
 70
192
 0
VERTEX
 8
TUBE.1
 10
1.9801
 20
0.9398
 30
0.9959
 70
192
 0
VERTEX
 8
TUBE.1
 10
1.9937
 20
0.9399
 30
0.3822
 70
192
 0
VERTEX
 8
TUBE.1
 10
1.4095
 20
1.0635
 30
0.3822
 70
192
 0
VERTEX
 8
TUBE.1
 10
1.9342
 20
1.4305
 30
0.3822
 70
192
 0
VERTEX
 8
TUBE.1
 10
1.9342
 20
1.4305
 30
0.3822
 70
192
 0
VERTEX
 8
TUBE.1
 10
1.9303
 20
1.4305
 30
1.0654
 70
192
 0
VERTEX
 8
TUBE.1
 10
1.9303
 20
1.4305
 30
1.0654
 70
192
 0
VERTEX
 8
TUBE.1
 10
1.3893
 20
1.0634
 30
0.9563
 70
192
 0
VERTEX
 8
TUBE.1
 10
1.3893
 20
1.0634
 30
0.9563
 70
192
 0
VERTEX
 8
TUBE.1
 10
1.4095
 20
1.0635
 30
0.3822
 70
192
 0
VERTEX
 8
TUBE.1
 10
0.7583
 20
1.1403
 30
0.3822
 70
192
 0
VERTEX
 8
TUBE.1
 10
1.0274
 20
1.5374
 30
0.3822
 70
192
 0
VERTEX
 8
TUBE.1
 10
1.0274
 20
1.5374
 30
0.3822
 70
192
 0
VERTEX
 8
TUBE.1
 10
1.0251
 20
1.5374
 30
1.0331
 70
192
 0
VERTEX
 8
TUBE.1
 10
1.0251
 20
1.5374
 30
1.0331
 70
192
 0
VERTEX
 8
TUBE.1
 10
0.7298
 20
1.1401
 30
0.9126
 70
192
 0
VERTEX
 8
TUBE.1
 10
0.7298
 20
1.1401
 30
0.9126
 70
192
 0
VERTEX
 8
TUBE.1
 10
0.7583
 20
1.1403
 30
0.3822
 70
192
 0
VERTEX
 8
TUBE.1
 10
0.0728
 20
1.1663
 30
0.3822
 70
192
 0
VERTEX
 8
TUBE.1
 10
0.0728
 20
1.5736
 30
0.3822
 70
192
 0
VERTEX
 8
TUBE.1
 10
0.0728
 20
1.5736
 30
0.3822
 70
192
 0
VERTEX
 8
TUBE.1
 10
0.0728
 20
1.5736
 30
1.024
 70
192
 0
VERTEX
 8
TUBE.1
 10
0.0728
 20
1.5736
 30
1.024
 70
192
 0
VERTEX
 8
TUBE.1
 10
0.0331
 20
1.1659
 30
0.8684
 70
192
 0
VERTEX
 8
TUBE.1
 10
0.0331
 20
1.1659
 30
0.8684
 70
192
 0
VERTEX
 8
TUBE.1
 10
0.0728
 20
1.1663
 30
0.3822
 70
192
 0
VERTEX
 8
TUBE.1
 10
-0.6128
 20
1.1403
 30
0.3822
 70
192
 0
VERTEX
 8
TUBE.1
 10
-0.8819
 20
1.5374
 30
0.3822
 70
192
 0
VERTEX
 8
TUBE.1
 10
-0.8819
 20
1.5374
 30
0.3822
 70
192
 0
VERTEX
 8
TUBE.1
 10
-0.8875
 20
1.5374
 30
1.0213
 70
192
 0
VERTEX
 8
TUBE.1
 10
-0.8875
 20
1.5374
 30
1.0213
 70
192
 0
VERTEX
 8
TUBE.1
 10
-0.6682
 20
1.1396
 30
0.8233
 70
192
 0
VERTEX
 8
TUBE.1
 10
-0.6682
 20
1.1396
 30
0.8233
 70
192
 0
VERTEX
 8
TUBE.1
 10
-0.6128
 20
1.1403
 30
0.3822
 70
192
 0
VERTEX
 8
TUBE.1
 10
-1.264
 20
1.0635
 30
0.3822
 70
192
 0
VERTEX
 8
TUBE.1
 10
-1.7886
 20
1.4305
 30
0.3822
 70
192
 0
VERTEX
 8
TUBE.1
 10
-1.7886
 20
1.4305
 30
0.3822
 70
192
 0
VERTEX
 8
TUBE.1
 10
-1.8142
 20
1.4303
 30
0.9953
 70
192
 0
VERTEX
 8
TUBE.1
 10
-1.8142
 20
1.4303
 30
0.9953
 70
192
 0
VERTEX
 8
TUBE.1
 10
-1.3407
 20
1.0619
 30
0.7779
 70
192
 0
VERTEX
 8
TUBE.1
 10
-1.3407
 20
1.0619
 30
0.7779
 70
192
 0
VERTEX
 8
TUBE.1
 10
-1.264
 20
1.0635
 30
0.3822
 70
192
 0
VERTEX
 8
TUBE.1
 10
-1.8482
 20
0.9399
 30
0.3822
 70
192
 0
VERTEX
 8
TUBE.1
 10
-2.6021
 20
1.2583
 30
0.3822
 70
192
 0
VERTEX
 8
TUBE.1
 10
-2.6021
 20
1.2583
 30
0.3822
 70
192
 0
VERTEX
 8
TUBE.1
 10
-2.6562
 20
1.2569
 30
0.9722
 70
192
 0
VERTEX
 8
TUBE.1
 10
-2.6562
 20
1.2569
 30
0.9722
 70
192
 0
VERTEX
 8
TUBE.1
 10
-1.9504
 20
0.9362
 30
0.7439
 70
192
 0
VERTEX
 8
TUBE.1
 10
-1.9504
 20
0.9362
 30
0.7439
 70
192
 0
VERTEX
 8
TUBE.1
 10
-1.8482
 20
0.9399
 30
0.3822
 70
192
 0
VERTEX
 8
TUBE.1
 10
-2.336
 20
0.7756
 30
0.3822
 70
192
 0
VERTEX
 8
TUBE.1
 10
-3.2814
 20
1.0295
 30
0.3822
 70
192
 0
VERTEX
 8
TUBE.1
 10
-3.2814
 20
1.0295
 30
0.3822
 70
192
 0
VERTEX
 8
TUBE.1
 10
-3.3596
 20
1.0233
 30
1.0435
 70
192
 0
VERTEX
 8
TUBE.1
 10
-3.3596
 20
1.0233
 30
1.0435
 70
192
 0
VERTEX
 8
TUBE.1
 10
-2.4654
 20
0.7677
 30
0.741
 70
192
 0
VERTEX
 8
TUBE.1
 10
-2.4654
 20
0.7677
 30
0.741
 70
192
 0
VERTEX
 8
TUBE.1
 10
-2.336
 20
0.7756
 30
0.3822
 70
192
 0
VERTEX
 8
TUBE.1
 10
-2.703
 20
0.5788
 30
0.3822
 70
192
 0
VERTEX
 8
TUBE.1
 10
-3.7925
 20
0.7555
 30
0.3822
 70
192
 0
VERTEX
 8
TUBE.1
 10
-3.7925
 20
0.7555
 30
0.3822
 70
192
 0
VERTEX
 8
TUBE.1
 10
-3.8894
 20
0.7375
 30
1.2632
 70
192
 0
VERTEX
 8
TUBE.1
 10
-3.8894
 20
0.7375
 30
1.2632
 70
192
 0
VERTEX
 8
TUBE.1
 10
-2.8607
 20
0.5638
 30
0.7773
 70
192
 0
VERTEX
 8
TUBE.1
 10
-2.8607
 20
0.5638
 30
0.7773
 70
192
 0
VERTEX
 8
TUBE.1
 10
-2.703
 20
0.5788
 30
0.3822
 70
192
 0
VERTEX
 8
TUBE.1
 10
-2.9309
 20
0.3594
 30
0.3822
 70
192
 0
VERTEX
 8
TUBE.1
 10
-4.1098
 20
0.4501
 30
0.3822
 70
192
 0
VERTEX
 8
TUBE.1
 10
-4.1098
 20
0.4501
 30
0.3822
 70
192
 0
VERTEX
 8
TUBE.1
 10
-4.2405
 20
0.4105
 30
1.5457
 70
192
 0
VERTEX
 8
TUBE.1
 10
-4.2405
 20
0.4105
 30
1.5457
 70
192
 0
VERTEX
 8
TUBE.1
 10
-3.1199
 20
0.334
 30
0.8327
 70
192
 0
VERTEX
 8
TUBE.1
 10
-3.1199
 20
0.334
 30
0.8327
 70
192
 0
VERTEX
 8
TUBE.1
 10
-2.9309
 20
0.3594
 30
0.3822
 70
192
 0
VERTEX
 8
TUBE.1
 10
-3.0081
 20
0.1285
 30
0.3822
 70
192
 0
VERTEX
 8
TUBE.1
 10
-4.2173
 20
0.1285
 30
0.3822
 70
192
 0
VERTEX
 8
TUBE.1
 10
-4.2173
 20
0.1285
 30
0.3822
 70
192
 0
VERTEX
 8
TUBE.1
 10
-4.4192
 20
0.0596
 30
1.7129
 70
192
 0
VERTEX
 8
TUBE.1
 10
-4.4192
 20
0.0596
 30
1.7129
 70
192
 0
VERTEX
 8
TUBE.1
 10
-3.2322
 20
0.091
 30
0.869
 70
192
 0
VERTEX
 8
TUBE.1
 10
-3.2322
 20
0.091
 30
0.869
 70
192
 0
VERTEX
 8
TUBE.1
 10
-3.0081
 20
0.1285
 30
0.3822
 70
192
 0
VERTEX
 8
TUBE.1
 10
-2.9309
 20
-0.1024
 30
0.3822
 70
192
 0
VERTEX
 8
TUBE.1
 10
-4.1098
 20
-0.1931
 30
0.3822
 70
192
 0
VERTEX
 8
TUBE.1
 10
-4.1098
 20
-0.1931
 30
0.3822
 70
192
 0
VERTEX
 8
TUBE.1
 10
-4.4113
 20
-0.291
 30
1.6601
 70
192
 0
VERTEX
 8
TUBE.1
 10
-4.4113
 20
-0.291
 30
1.6601
 70
192
 0
VERTEX
 8
TUBE.1
 10
-3.1873
 20
-0.1508
 30
0.8601
 70
192
 0
VERTEX
 8
TUBE.1
 10
-3.1873
 20
-0.1508
 30
0.8601
 70
192
 0
VERTEX
 8
TUBE.1
 10
-2.9309
 20
-0.1024
 30
0.3822
 70
192
 0
VERTEX
 8
TUBE.1
 10
-2.703
 20
-0.3218
 30
0.3822
 70
192
 0
VERTEX
 8
TUBE.1
 10
-3.7925
 20
-0.4985
 30
0.3822
 70
192
 0
VERTEX
 8
TUBE.1
 10
-3.7925
 20
-0.4985
 30
0.3822
 70
192
 0
VERTEX
 8
TUBE.1
 10
-4.1753
 20
-0.6141
 30
1.4485
 70
192
 0
VERTEX
 8
TUBE.1
 10
-4.1753
 20
-0.6141
 30
1.4485
 70
192
 0
VERTEX
 8
TUBE.1
 10
-2.9764
 20
-0.3763
 30
0.8099
 70
192
 0
VERTEX
 8
TUBE.1
 10
-2.9764
 20
-0.3763
 30
0.8099
 70
192
 0
VERTEX
 8
TUBE.1
 10
-2.703
 20
-0.3218
 30
0.3822
 70
192
 0
VERTEX
 8
TUBE.1
 10
-2.336
 20
-0.5185
 30
0.3822
 70
192
 0
VERTEX
 8
TUBE.1
 10
-3.2814
 20
-0.7725
 30
0.3822
 70
192
 0
VERTEX
 8
TUBE.1
 10
-3.2814
 20
-0.7725
 30
0.3822
 70
192
 0
VERTEX
 8
TUBE.1
 10
-3.6768
 20
-0.8869
 30
1.2161
 70
192
 0
VERTEX
 8
TUBE.1
 10
-3.6768
 20
-0.8869
 30
1.2161
 70
192
 0
VERTEX
 8
TUBE.1
 10
-2.5997
 20
-0.5722
 30
0.7414
 70
192
 0
VERTEX
 8
TUBE.1
 10
-2.5997
 20
-0.5722
 30
0.7414
 70
192
 0
VERTEX
 8
TUBE.1
 10
-2.336
 20
-0.5185
 30
0.3822
 70
192
 0
VERTEX
 8
TUBE.1
 10
-1.8482
 20
-0.6829
 30
0.3822
 70
192
 0
VERTEX
 8
TUBE.1
 10
-2.6021
 20
-1.0013
 30
0.3822
 70
192
 0
VERTEX
 8
TUBE.1
 10
-2.6021
 20
-1.0013
 30
0.3822
 70
192
 0
VERTEX
 8
TUBE.1
 10
-2.9303
 20
-1.0963
 30
1.0313
 70
192
 0
VERTEX
 8
TUBE.1
 10
-2.9303
 20
-1.0963
 30
1.0313
 70
192
 0
VERTEX
 8
TUBE.1
 10
-2.0749
 20
-0.729
 30
0.674
 70
192
 0
VERTEX
 8
TUBE.1
 10
-2.0749
 20
-0.729
 30
0.674
 70
192
 0
VERTEX
 8
TUBE.1
 10
-1.8482
 20
-0.6829
 30
0.3822
 70
192
 0
VERTEX
 8
TUBE.1
 10
-1.264
 20
-0.8065
 30
0.3822
 70
192
 0
VERTEX
 8
TUBE.1
 10
-1.7886
 20
-1.1735
 30
0.3822
 70
192
 0
VERTEX
 8
TUBE.1
 10
-1.7886
 20
-1.1735
 30
0.3822
 70
192
 0
VERTEX
 8
TUBE.1
 10
-2.0064
 20
-1.2393
 30
0.8705
 70
192
 0
VERTEX
 8
TUBE.1
 10
-2.0064
 20
-1.2393
 30
0.8705
 70
192
 0
VERTEX
 8
TUBE.1
 10
-1.4373
 20
-0.8411
 30
0.6173
 70
192
 0
VERTEX
 8
TUBE.1
 10
-1.4373
 20
-0.8411
 30
0.6173
 70
192
 0
VERTEX
 8
TUBE.1
 10
-1.264
 20
-0.8065
 30
0.3822
 70
192
 0
VERTEX
 8
TUBE.1
 10
-0.6128
 20
-0.8833
 30
0.3822
 70
192
 0
VERTEX
 8
TUBE.1
 10
-0.8819
 20
-1.2804
 30
0.3822
 70
192
 0
VERTEX
 8
TUBE.1
 10
-0.8819
 20
-1.2804
 30
0.3822
 70
192
 0
VERTEX
 8
TUBE.1
 10
-0.9974
 20
-1.3179
 30
0.7186
 70
192
 0
VERTEX
 8
TUBE.1
 10
-0.9974
 20
-1.3179
 30
0.7186
 70
192
 0
VERTEX
 8
TUBE.1
 10
-0.7321
 20
-0.9058
 30
0.582
 70
192
 0
VERTEX
 8
TUBE.1
 10
-0.7321
 20
-0.9058
 30
0.582
 70
192
 0
VERTEX
 8
TUBE.1
 10
-0.6128
 20
-0.8833
 30
0.3822
 70
192
 0
VERTEX
 8
TUBE.1
 10
0.0728
 20
-0.9093
 30
0.3822
 70
192
 0
VERTEX
 8
TUBE.1
 10
0.0728
 20
-1.3166
 30
0.3822
 70
192
 0
VERTEX
 8
TUBE.1
 10
0.0728
 20
-1.3166
 30
0.3822
 70
192
 0
VERTEX
 8
TUBE.1
 10
0.0223
 20
-1.3338
 30
0.6304
 70
192
 0
VERTEX
 8
TUBE.1
 10
0.0223
 20
-1.3338
 30
0.6304
 70
192
 0
VERTEX
 8
TUBE.1
 10
-0.0031
 20
-0.922
 30
0.5858
 70
192
 0
VERTEX
 8
TUBE.1
 10
-0.0031
 20
-0.922
 30
0.5858
 70
192
 0
VERTEX
 8
TUBE.1
 10
0.0728
 20
-0.9093
 30
0.3822
 70
192
 0
VERTEX
 8
TUBE.1
 10
0.7583
 20
-0.8833
 30
0.3822
 70
192
 0
VERTEX
 8
TUBE.1
 10
1.0274
 20
-1.2804
 30
0.3822
 70
192
 0
VERTEX
 8
TUBE.1
 10
1.0274
 20
-1.2804
 30
0.3822
 70
192
 0
VERTEX
 8
TUBE.1
 10
1.0072
 20
-1.2865
 30
0.6687
 70
192
 0
VERTEX
 8
TUBE.1
 10
1.0072
 20
-1.2865
 30
0.6687
 70
192
 0
VERTEX
 8
TUBE.1
 10
0.7122
 20
-0.8895
 30
0.6402
 70
192
 0
VERTEX
 8
TUBE.1
 10
0.7122
 20
-0.8895
 30
0.6402
 70
192
 0
VERTEX
 8
TUBE.1
 10
0.7583
 20
-0.8833
 30
0.3822
 70
192
 0
VERTEX
 8
TUBE.1
 10
1.4095
 20
-0.8065
 30
0.3822
 70
192
 0
VERTEX
 8
TUBE.1
 10
1.9342
 20
-1.1735
 30
0.3822
 70
192
 0
VERTEX
 8
TUBE.1
 10
1.9342
 20
-1.1735
 30
0.3822
 70
192
 0
VERTEX
 8
TUBE.1
 10
1.9256
 20
-1.1751
 30
0.8148
 70
192
 0
VERTEX
 8
TUBE.1
 10
1.9256
 20
-1.1751
 30
0.8148
 70
192
 0
VERTEX
 8
TUBE.1
 10
1.382
 20
-0.8091
 30
0.7357
 70
192
 0
VERTEX
 8
TUBE.1
 10
1.382
 20
-0.8091
 30
0.7357
 70
192
 0
VERTEX
 8
TUBE.1
 10
1.4095
 20
-0.8065
 30
0.3822
 70
192
 0
VERTEX
 8
TUBE.1
 10
1.9937
 20
-0.6829
 30
0.3822
 70
192
 0
VERTEX
 8
TUBE.1
 10
2.7476
 20
-1.0013
 30
0.3822
 70
192
 0
VERTEX
 8
TUBE.1
 10
2.7476
 20
-1.0013
 30
0.3822
 70
192
 0
VERTEX
 8
TUBE.1
 10
2.7441
 20
-1.0016
 30
0.981
 70
192
 0
VERTEX
 8
TUBE.1
 10
2.7441
 20
-1.0016
 30
0.981
 70
192
 0
VERTEX
 8
TUBE.1
 10
1.9775
 20
-0.6838
 30
0.8443
 70
192
 0
VERTEX
 8
TUBE.1
 10
1.9775
 20
-0.6838
 30
0.8443
 70
192
 0
VERTEX
 8
TUBE.1
 10
1.9937
 20
-0.6829
 30
0.3822
 70
192
 0
VERTEX
 8
TUBE.1
 10
2.4815
 20
-0.5185
 30
0.3822
 70
192
 0
VERTEX
 8
TUBE.1
 10
3.4269
 20
-0.7725
 30
0.3822
 70
192
 0
VERTEX
 8
TUBE.1
 10
3.4269
 20
-0.7725
 30
0.3822
 70
192
 0
VERTEX
 8
TUBE.1
 10
3.4259
 20
-0.7725
 30
1.0991
 70
192
 0
VERTEX
 8
TUBE.1
 10
3.4259
 20
-0.7725
 30
1.0991
 70
192
 0
VERTEX
 8
TUBE.1
 10
2.4722
 20
-0.5189
 30
0.9381
 70
192
 0
VERTEX
 8
TUBE.1
 10
2.4722
 20
-0.5189
 30
0.9381
 70
192
 0
VERTEX
 8
TUBE.1
 10
2.4815
 20
-0.5185
 30
0.3822
 70
192
 0
VERTEX
 8
TUBE.1
 10
2.8486
 20
-0.3218
 30
0.3822
 70
192
 0
VERTEX
 8
TUBE.1
 10
3.938
 20
-0.4985
 30
0.3822
 70
192
 0
VERTEX
 8
TUBE.1
 10
3.938
 20
-0.4985
 30
0.3822
 70
192
 0
VERTEX
 8
TUBE.1
 10
3.9379
 20
-0.4985
 30
1.1655
 70
192
 0
VERTEX
 8
TUBE.1
 10
3.9379
 20
-0.4985
 30
1.1655
 70
192
 0
VERTEX
 8
TUBE.1
 10
2.843
 20
-0.3219
 30
1.0045
 70
192
 0
VERTEX
 8
TUBE.1
 10
2.843
 20
-0.3219
 30
1.0045
 70
192
 0
VERTEX
 8
TUBE.1
 10
2.8486
 20
-0.3218
 30
0.3822
 70
192
 0
VERTEX
 8
TUBE.1
 10
3.0765
 20
-0.1024
 30
0.3822
 70
192
 0
VERTEX
 8
TUBE.1
 10
4.2553
 20
-0.1931
 30
0.3822
 70
192
 0
VERTEX
 8
TUBE.1
 10
4.2553
 20
-0.1931
 30
0.3822
 70
192
 0
VERTEX
 8
TUBE.1
 10
4.2553
 20
-0.1931
 30
1.2034
 70
192
 0
VERTEX
 8
TUBE.1
 10
4.2553
 20
-0.1931
 30
1.2034
 70
192
 0
VERTEX
 8
TUBE.1
 10
3.0727
 20
-0.1025
 30
1.0436
 70
192
 0
VERTEX
 8
TUBE.1
 10
3.0727
 20
-0.1025
 30
1.0436
 70
192
 0
VERTEX
 8
TUBE.1
 10
3.0765
 20
-0.1024
 30
0.3822
 70
192
 0
VERTEX
 8
TUBE.1
 10
0
 20
0
 30
0
 70
128
 71
1
 72
2
 73
10
 74
9
 0
VERTEX
 8
TUBE.1
 10
0
 20
0
 30
0
 70
128
 71
3
 72
4
 73
12
 74
11
 0
VERTEX
 8
TUBE.1
 10
0
 20
0
 30
0
 70
128
 71
5
 72
6
 73
14
 74
13
 0
VERTEX
 8
TUBE.1
 10
0
 20
0
 30
0
 70
128
 71
7
 72
8
 73
16
 74
15
 0
VERTEX
 8
TUBE.1
 10
0
 20
0
 30
0
 70
128
 71
9
 72
10
 73
18
 74
17
 0
VERTEX
 8
TUBE.1
 10
0
 20
0
 30
0
 70
128
 71
11
 72
12
 73
20
 74
19
 0
VERTEX
 8
TUBE.1
 10
0
 20
0
 30
0
 70
128
 71
13
 72
14
 73
22
 74
21
 0
VERTEX
 8
TUBE.1
 10
0
 20
0
 30
0
 70
128
 71
15
 72
16
 73
24
 74
23
 0
VERTEX
 8
TUBE.1
 10
0
 20
0
 30
0
 70
128
 71
17
 72
18
 73
26
 74
25
 0
VERTEX
 8
TUBE.1
 10
0
 20
0
 30
0
 70
128
 71
19
 72
20
 73
28
 74
27
 0
VERTEX
 8
TUBE.1
 10
0
 20
0
 30
0
 70
128
 71
21
 72
22
 73
30
 74
29
 0
VERTEX
 8
TUBE.1
 10
0
 20
0
 30
0
 70
128
 71
23
 72
24
 73
32
 74
31
 0
VERTEX
 8
TUBE.1
 10
0
 20
0
 30
0
 70
128
 71
25
 72
26
 73
34
 74
33
 0
VERTEX
 8
TUBE.1
 10
0
 20
0
 30
0
 70
128
 71
27
 72
28
 73
36
 74
35
 0
VERTEX
 8
TUBE.1
 10
0
 20
0
 30
0
 70
128
 71
29
 72
30
 73
38
 74
37
 0
VERTEX
 8
TUBE.1
 10
0
 20
0
 30
0
 70
128
 71
31
 72
32
 73
40
 74
39
 0
VERTEX
 8
TUBE.1
 10
0
 20
0
 30
0
 70
128
 71
33
 72
34
 73
42
 74
41
 0
VERTEX
 8
TUBE.1
 10
0
 20
0
 30
0
 70
128
 71
35
 72
36
 73
44
 74
43
 0
VERTEX
 8
TUBE.1
 10
0
 20
0
 30
0
 70
128
 71
37
 72
38
 73
46
 74
45
 0
VERTEX
 8
TUBE.1
 10
0
 20
0
 30
0
 70
128
 71
39
 72
40
 73
48
 74
47
 0
VERTEX
 8
TUBE.1
 10
0
 20
0
 30
0
 70
128
 71
41
 72
42
 73
50
 74
49
 0
VERTEX
 8
TUBE.1
 10
0
 20
0
 30
0
 70
128
 71
43
 72
44
 73
52
 74
51
 0
VERTEX
 8
TUBE.1
 10
0
 20
0
 30
0
 70
128
 71
45
 72
46
 73
54
 74
53
 0
VERTEX
 8
TUBE.1
 10
0
 20
0
 30
0
 70
128
 71
47
 72
48
 73
56
 74
55
 0
VERTEX
 8
TUBE.1
 10
0
 20
0
 30
0
 70
128
 71
49
 72
50
 73
58
 74
57
 0
VERTEX
 8
TUBE.1
 10
0
 20
0
 30
0
 70
128
 71
51
 72
52
 73
60
 74
59
 0
VERTEX
 8
TUBE.1
 10
0
 20
0
 30
0
 70
128
 71
53
 72
54
 73
62
 74
61
 0
VERTEX
 8
TUBE.1
 10
0
 20
0
 30
0
 70
128
 71
55
 72
56
 73
64
 74
63
 0
VERTEX
 8
TUBE.1
 10
0
 20
0
 30
0
 70
128
 71
57
 72
58
 73
66
 74
65
 0
VERTEX
 8
TUBE.1
 10
0
 20
0
 30
0
 70
128
 71
59
 72
60
 73
68
 74
67
 0
VERTEX
 8
TUBE.1
 10
0
 20
0
 30
0
 70
128
 71
61
 72
62
 73
70
 74
69
 0
VERTEX
 8
TUBE.1
 10
0
 20
0
 30
0
 70
128
 71
63
 72
64
 73
72
 74
71
 0
VERTEX
 8
TUBE.1
 10
0
 20
0
 30
0
 70
128
 71
65
 72
66
 73
74
 74
73
 0
VERTEX
 8
TUBE.1
 10
0
 20
0
 30
0
 70
128
 71
67
 72
68
 73
76
 74
75
 0
VERTEX
 8
TUBE.1
 10
0
 20
0
 30
0
 70
128
 71
69
 72
70
 73
78
 74
77
 0
VERTEX
 8
TUBE.1
 10
0
 20
0
 30
0
 70
128
 71
71
 72
72
 73
80
 74
79
 0
VERTEX
 8
TUBE.1
 10
0
 20
0
 30
0
 70
128
 71
73
 72
74
 73
82
 74
81
 0
VERTEX
 8
TUBE.1
 10
0
 20
0
 30
0
 70
128
 71
75
 72
76
 73
84
 74
83
 0
VERTEX
 8
TUBE.1
 10
0
 20
0
 30
0
 70
128
 71
77
 72
78
 73
86
 74
85
 0
VERTEX
 8
TUBE.1
 10
0
 20
0
 30
0
 70
128
 71
79
 72
80
 73
88
 74
87
 0
VERTEX
 8
TUBE.1
 10
0
 20
0
 30
0
 70
128
 71
81
 72
82
 73
90
 74
89
 0
VERTEX
 8
TUBE.1
 10
0
 20
0
 30
0
 70
128
 71
83
 72
84
 73
92
 74
91
 0
VERTEX
 8
TUBE.1
 10
0
 20
0
 30
0
 70
128
 71
85
 72
86
 73
94
 74
93
 0
VERTEX
 8
TUBE.1
 10
0
 20
0
 30
0
 70
128
 71
87
 72
88
 73
96
 74
95
 0
VERTEX
 8
TUBE.1
 10
0
 20
0
 30
0
 70
128
 71
89
 72
90
 73
98
 74
97
 0
VERTEX
 8
TUBE.1
 10
0
 20
0
 30
0
 70
128
 71
91
 72
92
 73
100
 74
99
 0
VERTEX
 8
TUBE.1
 10
0
 20
0
 30
0
 70
128
 71
93
 72
94
 73
102
 74
101
 0
VERTEX
 8
TUBE.1
 10
0
 20
0
 30
0
 70
128
 71
95
 72
96
 73
104
 74
103
 0
VERTEX
 8
TUBE.1
 10
0
 20
0
 30
0
 70
128
 71
97
 72
98
 73
106
 74
105
 0
VERTEX
 8
TUBE.1
 10
0
 20
0
 30
0
 70
128
 71
99
 72
100
 73
108
 74
107
 0
VERTEX
 8
TUBE.1
 10
0
 20
0
 30
0
 70
128
 71
101
 72
102
 73
110
 74
109
 0
VERTEX
 8
TUBE.1
 10
0
 20
0
 30
0
 70
128
 71
103
 72
104
 73
112
 74
111
 0
VERTEX
 8
TUBE.1
 10
0
 20
0
 30
0
 70
128
 71
105
 72
106
 73
114
 74
113
 0
VERTEX
 8
TUBE.1
 10
0
 20
0
 30
0
 70
128
 71
107
 72
108
 73
116
 74
115
 0
VERTEX
 8
TUBE.1
 10
0
 20
0
 30
0
 70
128
 71
109
 72
110
 73
118
 74
117
 0
VERTEX
 8
TUBE.1
 10
0
 20
0
 30
0
 70
128
 71
111
 72
112
 73
120
 74
119
 0
VERTEX
 8
TUBE.1
 10
0
 20
0
 30
0
 70
128
 71
113
 72
114
 73
122
 74
121
 0
VERTEX
 8
TUBE.1
 10
0
 20
0
 30
0
 70
128
 71
115
 72
116
 73
124
 74
123
 0
VERTEX
 8
TUBE.1
 10
0
 20
0
 30
0
 70
128
 71
117
 72
118
 73
126
 74
125
 0
VERTEX
 8
TUBE.1
 10
0
 20
0
 30
0
 70
128
 71
119
 72
120
 73
128
 74
127
 0
VERTEX
 8
TUBE.1
 10
0
 20
0
 30
0
 70
128
 71
121
 72
122
 73
130
 74
129
 0
VERTEX
 8
TUBE.1
 10
0
 20
0
 30
0
 70
128
 71
123
 72
124
 73
132
 74
131
 0
VERTEX
 8
TUBE.1
 10
0
 20
0
 30
0
 70
128
 71
125
 72
126
 73
134
 74
133
 0
VERTEX
 8
TUBE.1
 10
0
 20
0
 30
0
 70
128
 71
127
 72
128
 73
136
 74
135
 0
VERTEX
 8
TUBE.1
 10
0
 20
0
 30
0
 70
128
 71
129
 72
130
 73
138
 74
137
 0
VERTEX
 8
TUBE.1
 10
0
 20
0
 30
0
 70
128
 71
131
 72
132
 73
140
 74
139
 0
VERTEX
 8
TUBE.1
 10
0
 20
0
 30
0
 70
128
 71
133
 72
134
 73
142
 74
141
 0
VERTEX
 8
TUBE.1
 10
0
 20
0
 30
0
 70
128
 71
135
 72
136
 73
144
 74
143
 0
VERTEX
 8
TUBE.1
 10
0
 20
0
 30
0
 70
128
 71
137
 72
138
 73
146
 74
145
 0
VERTEX
 8
TUBE.1
 10
0
 20
0
 30
0
 70
128
 71
139
 72
140
 73
148
 74
147
 0
VERTEX
 8
TUBE.1
 10
0
 20
0
 30
0
 70
128
 71
141
 72
142
 73
150
 74
149
 0
VERTEX
 8
TUBE.1
 10
0
 20
0
 30
0
 70
128
 71
143
 72
144
 73
152
 74
151
 0
VERTEX
 8
TUBE.1
 10
0
 20
0
 30
0
 70
128
 71
145
 72
146
 73
154
 74
153
 0
VERTEX
 8
TUBE.1
 10
0
 20
0
 30
0
 70
128
 71
147
 72
148
 73
156
 74
155
 0
VERTEX
 8
TUBE.1
 10
0
 20
0
 30
0
 70
128
 71
149
 72
150
 73
158
 74
157
 0
VERTEX
 8
TUBE.1
 10
0
 20
0
 30
0
 70
128
 71
151
 72
152
 73
160
 74
159
 0
VERTEX
 8
TUBE.1
 10
0
 20
0
 30
0
 70
128
 71
153
 72
154
 73
162
 74
161
 0
VERTEX
 8
TUBE.1
 10
0
 20
0
 30
0
 70
128
 71
155
 72
156
 73
164
 74
163
 0
VERTEX
 8
TUBE.1
 10
0
 20
0
 30
0
 70
128
 71
157
 72
158
 73
166
 74
165
 0
VERTEX
 8
TUBE.1
 10
0
 20
0
 30
0
 70
128
 71
159
 72
160
 73
168
 74
167
 0
VERTEX
 8
TUBE.1
 10
0
 20
0
 30
0
 70
128
 71
161
 72
162
 73
170
 74
169
 0
VERTEX
 8
TUBE.1
 10
0
 20
0
 30
0
 70
128
 71
163
 72
164
 73
172
 74
171
 0
VERTEX
 8
TUBE.1
 10
0
 20
0
 30
0
 70
128
 71
165
 72
166
 73
174
 74
173
 0
VERTEX
 8
TUBE.1
 10
0
 20
0
 30
0
 70
128
 71
167
 72
168
 73
176
 74
175
 0
VERTEX
 8
TUBE.1
 10
0
 20
0
 30
0
 70
128
 71
169
 72
170
 73
178
 74
177
 0
VERTEX
 8
TUBE.1
 10
0
 20
0
 30
0
 70
128
 71
171
 72
172
 73
180
 74
179
 0
VERTEX
 8
TUBE.1
 10
0
 20
0
 30
0
 70
128
 71
173
 72
174
 73
182
 74
181
 0
VERTEX
 8
TUBE.1
 10
0
 20
0
 30
0
 70
128
 71
175
 72
176
 73
184
 74
183
 0
VERTEX
 8
TUBE.1
 10
0
 20
0
 30
0
 70
128
 71
177
 72
178
 73
186
 74
185
 0
VERTEX
 8
TUBE.1
 10
0
 20
0
 30
0
 70
128
 71
179
 72
180
 73
188
 74
187
 0
VERTEX
 8
TUBE.1
 10
0
 20
0
 30
0
 70
128
 71
181
 72
182
 73
190
 74
189
 0
VERTEX
 8
TUBE.1
 10
0
 20
0
 30
0
 70
128
 71
183
 72
184
 73
192
 74
191
 0
VERTEX
 8
TUBE.1
 10
0
 20
0
 30
0
 70
128
 71
185
 72
186
 73
194
 74
193
 0
VERTEX
 8
TUBE.1
 10
0
 20
0
 30
0
 70
128
 71
187
 72
188
 73
196
 74
195
 0
VERTEX
 8
TUBE.1
 10
0
 20
0
 30
0
 70
128
 71
189
 72
190
 73
198
 74
197
 0
VERTEX
 8
TUBE.1
 10
0
 20
0
 30
0
 70
128
 71
191
 72
192
 73
200
 74
199
 0
VERTEX
 8
TUBE.1
 10
0
 20
0
 30
0
 70
128
 71
193
 72
194
 73
202
 74
201
 0
VERTEX
 8
TUBE.1
 10
0
 20
0
 30
0
 70
128
 71
195
 72
196
 73
204
 74
203
 0
VERTEX
 8
TUBE.1
 10
0
 20
0
 30
0
 70
128
 71
197
 72
198
 73
206
 74
205
 0
VERTEX
 8
TUBE.1
 10
0
 20
0
 30
0
 70
128
 71
199
 72
200
 73
208
 74
207
 0
VERTEX
 8
TUBE.1
 10
0
 20
0
 30
0
 70
128
 71
201
 72
202
 73
210
 74
209
 0
VERTEX
 8
TUBE.1
 10
0
 20
0
 30
0
 70
128
 71
203
 72
204
 73
212
 74
211
 0
VERTEX
 8
TUBE.1
 10
0
 20
0
 30
0
 70
128
 71
205
 72
206
 73
214
 74
213
 0
VERTEX
 8
TUBE.1
 10
0
 20
0
 30
0
 70
128
 71
207
 72
208
 73
216
 74
215
 0
VERTEX
 8
TUBE.1
 10
0
 20
0
 30
0
 70
128
 71
209
 72
210
 73
218
 74
217
 0
VERTEX
 8
TUBE.1
 10
0
 20
0
 30
0
 70
128
 71
211
 72
212
 73
220
 74
219
 0
VERTEX
 8
TUBE.1
 10
0
 20
0
 30
0
 70
128
 71
213
 72
214
 73
222
 74
221
 0
VERTEX
 8
TUBE.1
 10
0
 20
0
 30
0
 70
128
 71
215
 72
216
 73
224
 74
223
 0
VERTEX
 8
TUBE.1
 10
0
 20
0
 30
0
 70
128
 71
217
 72
218
 73
2
 74
1
 0
VERTEX
 8
TUBE.1
 10
0
 20
0
 30
0
 70
128
 71
219
 72
220
 73
4
 74
3
 0
VERTEX
 8
TUBE.1
 10
0
 20
0
 30
0
 70
128
 71
221
 72
222
 73
6
 74
5
 0
VERTEX
 8
TUBE.1
 10
0
 20
0
 30
0
 70
128
 71
223
 72
224
 73
8
 74
7
 0
SEQEND
 0
ENDSEC
 0
EOF
